<svg xmlns="http://www.w3.org/2000/svg" width="24" height="24" viewBox="0 0 24 24" fill="none">
    <path
        d="M12.0014 23.4545C18.3276 23.4545 23.456 18.3261 23.456 12C23.456 5.67378 18.3276 0.54541 12.0014 0.54541C5.67525 0.54541 0.546875 5.67378 0.546875 12C0.546875 18.3261 5.67525 23.4545 12.0014 23.4545Z"
        fill="url(#paint0_linear_1930_7706)" />
    <path
        d="M12.0017 22.595C17.8534 22.595 22.5972 17.8512 22.5972 11.9995C22.5972 6.1478 17.8534 1.40405 12.0017 1.40405C6.15 1.40405 1.40625 6.1478 1.40625 11.9995C1.40625 17.8512 6.15 22.595 12.0017 22.595Z"
        fill="url(#paint1_radial_1930_7706)" />
    <path
        d="M12.0209 3.98072C11.9493 3.98072 11.8867 3.92705 11.8867 3.85546V1.98513C11.8867 1.91353 11.9493 1.85986 12.0209 1.85986C12.0925 1.85986 12.1551 1.91353 12.1551 1.98513V3.85546C12.1462 3.92705 12.0925 3.98072 12.0209 3.98072Z"
        fill="#F3F3F3" />
    <path
        d="M12.0182 3.99032C11.9376 3.99032 11.875 3.92769 11.875 3.8561V1.98578C11.875 1.91419 11.9376 1.85156 12.0182 1.85156C12.0987 1.85156 12.1614 1.91419 12.1614 1.98578V3.8561C12.1614 3.92769 12.0898 3.99032 12.0182 3.99032ZM12.0182 1.86939C11.9555 1.86939 11.8929 1.92315 11.8929 1.98578V3.8561C11.8929 3.91873 11.9466 3.97249 12.0182 3.97249C12.0808 3.97249 12.1434 3.91873 12.1434 3.8561V1.98578C12.1346 1.92315 12.0808 1.86939 12.0182 1.86939Z"
        fill="white" />
    <path
        d="M12.9143 2.9803C12.8427 2.97134 12.7891 2.91767 12.7891 2.84608L12.8517 2.01376C12.8606 1.94226 12.9233 1.8885 12.9949 1.89746C13.0665 1.90642 13.1201 1.96019 13.1201 2.03178L13.0575 2.864C13.0485 2.93559 12.9859 2.98927 12.9143 2.9804V2.9803Z"
        fill="#F3F3F3" />
    <path
        d="M12.9155 2.98929C12.8349 2.98033 12.7812 2.9177 12.7812 2.8461L12.8439 2.0138C12.8528 1.9423 12.9155 1.87967 12.996 1.88854C13.0765 1.8975 13.1302 1.96022 13.1302 2.03172L13.0676 2.86403C13.0587 2.94458 12.996 2.99825 12.9155 2.98929ZM12.996 1.90646C12.9334 1.90646 12.8707 1.95126 12.8707 2.01389L12.808 2.8462C12.808 2.90874 12.8528 2.9625 12.9244 2.97137C12.9871 2.97137 13.0497 2.92666 13.0497 2.86403L13.1123 2.03172C13.1123 1.96909 13.0587 1.91542 12.9959 1.90646H12.996Z"
        fill="white" />
    <path
        d="M13.5812 4.14326C13.5095 4.12534 13.4648 4.06271 13.4738 3.99112L13.8407 2.15653C13.8586 2.08503 13.9212 2.04023 13.9928 2.05815C14.0644 2.07607 14.1091 2.1387 14.1002 2.21029L13.7333 4.04488C13.7243 4.10742 13.6527 4.15222 13.5811 4.14326H13.5812Z"
        fill="#F3F3F3" />
    <path
        d="M13.5824 4.15189C13.5017 4.13397 13.457 4.06238 13.466 3.99079L13.8329 2.15622C13.8508 2.08473 13.9224 2.03096 14.0028 2.04888C14.0834 2.0668 14.1282 2.1384 14.1192 2.20999L13.7523 4.04455C13.7344 4.11605 13.6628 4.16085 13.5824 4.15189ZM14.0028 2.0668C13.9402 2.05784 13.8776 2.09359 13.8596 2.15632L13.4929 3.99088C13.4839 4.05342 13.5196 4.11605 13.5912 4.13406C13.6539 4.14293 13.7165 4.10709 13.7344 4.04446L14.1013 2.20999C14.1102 2.1384 14.0655 2.08473 14.0028 2.0668Z"
        fill="white" />
    <path
        d="M14.6607 3.33834C14.6437 3.33423 14.6276 3.32681 14.6134 3.31648C14.5993 3.30616 14.5873 3.29315 14.5781 3.27818C14.569 3.26322 14.5629 3.24661 14.5602 3.22928C14.5575 3.21196 14.5582 3.19428 14.5623 3.17724L14.7861 2.37191C14.8039 2.30032 14.8755 2.26448 14.9471 2.2824C15.0187 2.30032 15.0635 2.37191 15.0456 2.4435L14.8218 3.24892C14.8039 3.32042 14.7323 3.35626 14.6607 3.33834Z"
        fill="#F3F3F3" />
    <path
        d="M14.6562 3.34685C14.5846 3.32893 14.531 3.24838 14.5578 3.17688L14.7815 2.37137C14.7994 2.29988 14.8799 2.25507 14.9515 2.273C15.0231 2.29092 15.0767 2.37147 15.0499 2.44296L14.8262 3.24847C14.8083 3.31997 14.7367 3.36477 14.6563 3.34685H14.6562ZM14.9515 2.29988C14.8889 2.28196 14.8173 2.3178 14.7994 2.38043L14.5758 3.18575C14.5578 3.24838 14.5936 3.3111 14.6652 3.32893C14.7278 3.34685 14.7994 3.3111 14.8173 3.24847L15.041 2.44296C15.0499 2.38043 15.0142 2.3178 14.9515 2.29978V2.29988Z"
        fill="white" />
    <path
        d="M15.0935 4.59906C15.0219 4.57218 14.9951 4.49163 15.0219 4.429L15.7378 2.70187C15.7646 2.63924 15.8452 2.6034 15.9077 2.63924C15.9794 2.66603 16.0063 2.74667 15.9794 2.80921L15.2635 4.53634C15.2368 4.59906 15.1561 4.63481 15.0936 4.59906H15.0935Z"
        fill="#F3F3F3" />
    <path
        d="M15.0973 4.6086C15.0629 4.5955 15.0352 4.56929 15.0201 4.53574C15.005 4.50218 15.0038 4.464 15.0168 4.42958L15.7327 2.70242C15.7596 2.63083 15.8401 2.60395 15.9207 2.63083C15.9551 2.64394 15.9829 2.67014 15.998 2.7037C16.0131 2.73726 16.0142 2.77543 16.0012 2.80986L15.2853 4.53701C15.2495 4.6086 15.1689 4.64435 15.0973 4.6086ZM15.9117 2.64875C15.8491 2.62196 15.7775 2.64875 15.7506 2.71138L15.0347 4.43854C15.0079 4.50117 15.0437 4.5638 15.1063 4.59068C15.1689 4.61747 15.2405 4.59068 15.2674 4.52805L15.9833 2.8009C16.0012 2.74713 15.9744 2.67554 15.9117 2.64875Z"
        fill="white" />
    <path
        d="M16.3036 4.02748C16.2408 3.99164 16.214 3.92005 16.2408 3.85742L16.6167 3.11474C16.6524 3.05201 16.724 3.02513 16.7957 3.06098C16.8583 3.09682 16.8851 3.16841 16.8583 3.23094L16.4824 3.97372C16.4466 4.03635 16.3751 4.06332 16.3035 4.02748H16.3036Z"
        fill="#F3F3F3" />
    <path
        d="M16.3051 4.03455C16.2334 3.99871 16.2066 3.91816 16.2423 3.84657L16.6182 3.10388C16.654 3.0322 16.7346 3.00541 16.8061 3.04116C16.8777 3.077 16.9046 3.15755 16.8688 3.22914L16.493 3.97183C16.4571 4.04342 16.3766 4.0703 16.305 4.03446L16.3051 4.03455ZM16.7972 3.05908C16.7345 3.03229 16.6629 3.05012 16.6361 3.11275L16.2603 3.85553C16.2335 3.9092 16.2602 3.98079 16.3139 4.01663C16.3766 4.04342 16.4481 4.02559 16.475 3.96296L16.8509 3.22018C16.8777 3.16651 16.8509 3.09492 16.7972 3.05908Z"
        fill="white" />
    <path
        d="M16.4825 5.35077C16.4199 5.30606 16.402 5.22551 16.4467 5.17183L17.4848 3.62361C17.5206 3.56098 17.6012 3.55202 17.6637 3.58786C17.7265 3.63257 17.7443 3.71313 17.6996 3.7668L16.6615 5.31502C16.6257 5.37765 16.5452 5.39557 16.4825 5.35077Z"
        fill="#F3F3F3" />
    <path
        d="M16.4809 5.35987C16.4183 5.31516 16.4004 5.22565 16.4362 5.16302L17.4743 3.61484C17.519 3.55221 17.5995 3.53429 17.6711 3.57909C17.7338 3.6238 17.7517 3.71331 17.7159 3.77594L16.6778 5.32412C16.6331 5.38675 16.5436 5.40457 16.4809 5.35987ZM17.6622 3.59701C17.6086 3.56117 17.5279 3.57013 17.4922 3.6238L16.4541 5.17198C16.4183 5.22556 16.4361 5.29724 16.4899 5.33299C16.5436 5.36883 16.6241 5.35987 16.6599 5.3062L17.698 3.76698C17.7338 3.71331 17.7159 3.63276 17.6622 3.59701Z"
        fill="white" />
    <path
        d="M17.7865 5.02088C17.7329 4.97608 17.715 4.89553 17.7597 4.84186L18.2787 4.18858C18.3234 4.135 18.404 4.12595 18.4576 4.17075C18.5114 4.21546 18.5292 4.29601 18.4844 4.34968L17.9655 5.00296C17.9208 5.05663 17.8402 5.06559 17.7866 5.02088H17.7865Z"
        fill="#F3F3F3" />
    <path
        d="M17.7814 5.02838C17.7187 4.98357 17.7098 4.89406 17.7546 4.83143L18.2735 4.17822C18.3182 4.1155 18.4077 4.10654 18.4704 4.1603C18.533 4.20501 18.5419 4.29453 18.4971 4.35716L17.9782 5.01046C17.9335 5.07309 17.844 5.08205 17.7814 5.02838ZM18.4524 4.17813C18.3989 4.13342 18.3272 4.14238 18.2825 4.19605L17.7634 4.84935C17.7277 4.90302 17.7366 4.97461 17.7902 5.01932C17.844 5.06413 17.9156 5.05517 17.9603 5.0015L18.4793 4.3482C18.5152 4.29453 18.5061 4.21397 18.4525 4.17822L18.4524 4.17813Z"
        fill="white" />
    <path
        d="M17.7004 6.3615C17.6467 6.30783 17.6467 6.22728 17.7004 6.18248L19.0247 4.86708C19.0785 4.81341 19.159 4.82228 19.2038 4.86708C19.2485 4.91179 19.2574 5.0013 19.2038 5.04601L17.8884 6.3615C17.8346 6.41517 17.7541 6.41517 17.7004 6.3615Z"
        fill="#F3F3F3" />
    <path
        d="M17.6926 6.37006C17.6668 6.3438 17.6523 6.30845 17.6523 6.27163C17.6523 6.23481 17.6668 6.19947 17.6926 6.17321L19.017 4.8577C19.0433 4.83186 19.0787 4.81738 19.1155 4.81738C19.1524 4.81738 19.1877 4.83186 19.214 4.8577C19.2398 4.88396 19.2543 4.91931 19.2543 4.95613C19.2543 4.99295 19.2398 5.02829 19.214 5.05455L17.8895 6.36997C17.8632 6.39578 17.8279 6.41024 17.791 6.41024C17.7542 6.41024 17.7189 6.39578 17.6926 6.36997V6.37006ZM19.205 4.86666C19.1603 4.82186 19.0798 4.82186 19.035 4.86666L17.7105 6.18208C17.6657 6.22688 17.6657 6.30743 17.7105 6.35214C17.7553 6.39694 17.8358 6.39694 17.8805 6.35214L19.205 5.03672C19.2497 4.99192 19.2497 4.92033 19.205 4.86666Z"
        fill="white" />
    <path
        d="M19.0442 6.29092C18.9995 6.23725 18.9995 6.1567 19.0532 6.1119L19.6885 5.57503C19.7421 5.53032 19.8227 5.53919 19.8675 5.59295C19.9122 5.64662 19.9122 5.72717 19.8585 5.77188L19.2232 6.30884C19.1695 6.35355 19.0889 6.34459 19.0442 6.29092Z"
        fill="#F3F3F3" />
    <path
        d="M19.0321 6.30031C18.9785 6.23768 18.9874 6.14817 19.0411 6.10346L19.6764 5.56648C19.7301 5.51281 19.8196 5.52177 19.8733 5.5844C19.927 5.64703 19.9181 5.73654 19.8644 5.78125L19.229 6.31823C19.1754 6.3718 19.0858 6.36294 19.0322 6.30031H19.0321ZM19.8554 5.59336C19.8106 5.53969 19.739 5.53969 19.6855 5.57544L19.0501 6.11242C19.0054 6.15713 18.9964 6.22872 19.0411 6.28239C19.0858 6.33606 19.1575 6.33606 19.2111 6.30031L19.8465 5.76333C19.9001 5.71862 19.9001 5.64703 19.8554 5.59336Z"
        fill="white" />
    <path
        d="M18.685 7.57897C18.6403 7.51634 18.6582 7.43578 18.7208 7.39994L20.2778 6.36191C20.3404 6.32607 20.421 6.34399 20.4567 6.39775C20.5015 6.46038 20.4836 6.54093 20.421 6.57668L18.864 7.61472C18.8102 7.65056 18.7297 7.63264 18.685 7.57897Z"
        fill="#F3F3F3" />
    <path
        d="M18.6772 7.57914C18.6325 7.51651 18.6504 7.427 18.713 7.38229L20.2701 6.34419C20.3327 6.29948 20.4222 6.3174 20.4669 6.38899C20.5117 6.45162 20.4937 6.54113 20.4312 6.58574L18.8741 7.62394C18.8114 7.66874 18.722 7.65082 18.6772 7.57923V7.57914ZM20.449 6.40691C20.4133 6.35315 20.3417 6.33523 20.288 6.37107L18.7308 7.40908C18.6773 7.44492 18.6592 7.51651 18.704 7.57914C18.7398 7.63281 18.8114 7.65073 18.8651 7.61498L20.4222 6.57688C20.4759 6.53217 20.4849 6.46048 20.449 6.40691Z"
        fill="white" />
    <path
        d="M20.0183 7.76782C19.9824 7.7051 20.0003 7.62464 20.063 7.5888L20.7879 7.17719C20.8505 7.14135 20.931 7.16823 20.9668 7.23077C21.0026 7.29349 20.9847 7.37394 20.9221 7.40979L20.1972 7.82149C20.1346 7.85724 20.054 7.83045 20.0182 7.76773L20.0183 7.76782Z"
        fill="#F3F3F3" />
    <path
        d="M20.0066 7.77673C19.9707 7.70514 19.9886 7.62458 20.0513 7.58883L20.7761 7.17719C20.8388 7.14135 20.9283 7.16823 20.964 7.23077C20.9999 7.30246 20.982 7.38301 20.9193 7.41876L20.1944 7.8305C20.1318 7.86625 20.0423 7.83936 20.0066 7.77673ZM20.9551 7.23982C20.9193 7.17719 20.8477 7.15927 20.7941 7.19502L20.0692 7.60675C20.0155 7.6425 19.9976 7.7141 20.0244 7.76777C20.0602 7.8304 20.1318 7.84832 20.1855 7.81257L20.9104 7.40084C20.964 7.37405 20.982 7.30246 20.9551 7.23982Z"
        fill="white" />
    <path
        d="M19.4203 8.95741C19.3936 8.88582 19.4203 8.81423 19.4919 8.78744L21.2191 8.07154C21.2817 8.04466 21.3622 8.08041 21.389 8.14304C21.4159 8.21463 21.389 8.28622 21.3174 8.31301L19.5904 9.0289C19.5277 9.05578 19.4472 9.0289 19.4203 8.95741Z"
        fill="#F3F3F3" />
    <path
        d="M19.4086 8.96689C19.3818 8.8954 19.4086 8.81485 19.4802 8.77901L21.2073 8.06313C21.2418 8.05016 21.2799 8.05136 21.3134 8.06645C21.347 8.08155 21.3732 8.10932 21.3863 8.14368C21.4131 8.21527 21.3863 8.29582 21.3147 8.33156L19.5876 9.04744C19.5532 9.06044 19.5151 9.05928 19.4815 9.0442C19.448 9.02912 19.4217 9.00135 19.4086 8.96699V8.96689ZM21.3684 8.15264C21.3416 8.09001 21.27 8.06313 21.2163 8.08105L19.4892 8.79693C19.4265 8.82372 19.3997 8.8954 19.4265 8.95803C19.4533 9.02065 19.5249 9.04753 19.5787 9.02961L21.3057 8.31374C21.3684 8.28695 21.3953 8.21527 21.3684 8.15264Z"
        fill="white" />
    <path
        d="M20.6808 9.40558C20.654 9.3339 20.6897 9.2624 20.7613 9.23552L21.5487 8.97594C21.6114 8.94915 21.6919 8.99386 21.7098 9.05649C21.7366 9.12808 21.7009 9.19967 21.6293 9.22656L20.8418 9.48613C20.7792 9.51292 20.7076 9.47717 20.6808 9.40549V9.40558Z"
        fill="#F3F3F3" />
    <path
        d="M20.6728 9.41463C20.6461 9.34304 20.6818 9.26248 20.7624 9.23569L21.5498 8.97611C21.6214 8.94932 21.7019 8.99403 21.7288 9.06572C21.7556 9.13722 21.7198 9.21777 21.6392 9.24465L20.8519 9.50424C20.7803 9.52207 20.6997 9.48622 20.6728 9.41463ZM21.7109 9.07468C21.6929 9.01195 21.6214 8.97611 21.5587 8.99403L20.7713 9.25362C20.7087 9.27144 20.6818 9.34304 20.6997 9.40576C20.7176 9.46839 20.7892 9.50414 20.8519 9.48622L21.6393 9.22673C21.7019 9.19994 21.7288 9.13722 21.7109 9.07459V9.07468Z"
        fill="white" />
    <path
        d="M19.8751 10.4701C19.8571 10.3985 19.9018 10.3269 19.9734 10.3179L21.8079 9.96002C21.8794 9.9421 21.9421 9.99577 21.9599 10.0674C21.9778 10.1389 21.9331 10.2105 21.8615 10.2195L20.0271 10.5774C19.9555 10.5864 19.8839 10.5417 19.875 10.4701H19.8751Z"
        fill="#F3F3F3" />
    <path
        d="M19.8589 10.469C19.841 10.3885 19.8947 10.3169 19.9663 10.2989L21.8009 9.94095C21.8724 9.92303 21.944 9.9768 21.9619 10.0574C21.9798 10.1378 21.9261 10.2094 21.8545 10.2273L20.02 10.5853C19.9485 10.6032 19.8768 10.5496 19.8589 10.4689V10.469ZM21.944 10.0662C21.9351 10.0036 21.8724 9.95888 21.8098 9.96784L19.9752 10.3258C19.9126 10.3348 19.8679 10.4063 19.8857 10.469C19.8947 10.5316 19.9573 10.5764 20.02 10.5674L21.8545 10.2094C21.9172 10.1915 21.9619 10.1289 21.944 10.0662Z"
        fill="white" />
    <path
        d="M21.0207 11.1582C21.0117 11.0866 21.0564 11.0239 21.128 11.015L21.9512 10.9165C22.0228 10.9076 22.0856 10.9613 22.0944 11.0329C22.1034 11.1045 22.0587 11.1671 21.9871 11.1761L21.1638 11.2745C21.1011 11.2835 21.0295 11.2298 21.0206 11.1582H21.0207Z"
        fill="#F3F3F3" />
    <path
        d="M21.0088 11.1589C20.9998 11.0783 21.0535 11.0067 21.1251 10.9978L21.9483 10.8994C22.0199 10.8905 22.0915 10.9441 22.1004 11.0247C22.1094 11.1052 22.0557 11.1768 21.9841 11.1858L21.1608 11.2841C21.0893 11.2931 21.0177 11.2394 21.0088 11.1589ZM22.0915 11.0336C22.0826 10.971 22.02 10.9172 21.9573 10.9262L21.134 11.0247C21.0714 11.0336 21.0266 11.0963 21.0356 11.1589C21.0445 11.2215 21.1072 11.2753 21.1698 11.2663L21.9931 11.1678C22.0557 11.1589 22.1004 11.0963 22.0916 11.0336H22.0915Z"
        fill="white" />
    <path
        d="M20.0195 12.0278C20.0195 11.9562 20.0731 11.8936 20.1448 11.8936H22.0151C22.0867 11.8936 22.1404 11.9562 22.1404 12.0278C22.1404 12.0994 22.0867 12.162 22.0151 12.162H20.1448C20.0732 12.162 20.0195 12.0994 20.0195 12.0278Z"
        fill="#F3F3F3" />
    <path
        d="M20.0117 12.026C20.0117 11.9454 20.0743 11.8828 20.1459 11.8828H22.0163C22.0879 11.8828 22.1505 11.9454 22.1505 12.026C22.1505 12.1065 22.0879 12.1692 22.0163 12.1692H20.1459C20.0743 12.1692 20.0117 12.1065 20.0117 12.026ZM22.1326 12.0349C22.1326 11.9723 22.0789 11.9097 22.0162 11.9097H20.146C20.0834 11.9097 20.0296 11.9633 20.0296 12.0349C20.0296 12.0976 20.0834 12.1602 20.146 12.1602H22.0164C22.079 12.1512 22.1327 12.0976 22.1327 12.0349H22.1326Z"
        fill="white" />
    <path
        d="M21.0118 12.9304C21.0207 12.8588 21.0744 12.8052 21.146 12.8052L21.9783 12.8678C22.0498 12.8768 22.1034 12.9394 22.0945 13.011C22.0856 13.0826 22.0319 13.1362 21.9603 13.1362L21.1281 13.0736C21.0655 13.0647 21.0117 13.002 21.0117 12.9304H21.0118Z"
        fill="#F3F3F3" />
    <path
        d="M21.0039 12.9311C21.0129 12.8505 21.0755 12.7969 21.1471 12.7969L21.9795 12.8595C22.051 12.8685 22.1136 12.9311 22.1047 13.0116C22.0958 13.0922 22.0331 13.1459 21.9615 13.1459L21.1292 13.0832C21.0576 13.0743 21.0039 13.0027 21.0039 12.9311ZM22.0958 13.0116C22.1047 12.949 22.051 12.8864 21.9884 12.8864L21.156 12.8238C21.0934 12.8238 21.0397 12.8685 21.0307 12.9401C21.0218 13.0027 21.0755 13.0653 21.1381 13.0653L21.9705 13.1279C22.0331 13.1279 22.0868 13.0744 22.0958 13.0116Z"
        fill="white" />
    <path
        d="M19.8605 13.5831C19.8784 13.5115 19.9411 13.4667 20.0127 13.4758L21.8472 13.8427C21.9188 13.8605 21.9636 13.9231 21.9456 13.9947C21.9277 14.0663 21.8651 14.1111 21.7935 14.1022L19.9589 13.7352C19.8963 13.7263 19.8516 13.6547 19.8605 13.5831Z"
        fill="#F3F3F3" />
    <path
        d="M19.8449 13.5833C19.8628 13.5028 19.9344 13.4581 20.006 13.4669L21.8406 13.8339C21.9122 13.8517 21.9659 13.9233 21.948 14.0039C21.9301 14.0844 21.8585 14.1292 21.7869 14.1202L19.9522 13.7534C19.8806 13.7354 19.8359 13.6639 19.8449 13.5834V13.5833ZM21.9301 14.0039C21.9391 13.9412 21.9033 13.8786 21.8406 13.8607L20.0059 13.4938C19.9434 13.4849 19.8806 13.5207 19.8627 13.5923C19.8538 13.6549 19.8896 13.7175 19.9523 13.7354L21.7869 14.1023C21.8585 14.1113 21.9122 14.0665 21.9301 14.0039Z"
        fill="white" />
    <path
        d="M20.6648 14.6568C20.6689 14.6398 20.6763 14.6237 20.6866 14.6096C20.6969 14.5954 20.71 14.5834 20.7249 14.5743C20.7399 14.5651 20.7565 14.559 20.7738 14.5563C20.7911 14.5536 20.8088 14.5543 20.8258 14.5584L21.6312 14.7821C21.7028 14.8 21.7385 14.8717 21.7207 14.9432C21.7166 14.9603 21.7092 14.9763 21.6989 14.9905C21.6886 15.0047 21.6755 15.0167 21.6606 15.0259C21.6456 15.035 21.629 15.0411 21.6117 15.0438C21.5943 15.0465 21.5767 15.0458 21.5596 15.0417L20.7542 14.8179C20.6826 14.8 20.6469 14.7284 20.6647 14.6568H20.6648Z"
        fill="#F3F3F3" />
    <path
        d="M20.6562 14.6581C20.6742 14.5866 20.7547 14.5329 20.8263 14.5598L21.6317 14.7834C21.7033 14.8013 21.7481 14.8818 21.7302 14.9534C21.7123 15.025 21.6317 15.0787 21.5601 15.0519L20.7547 14.8282C20.6831 14.8103 20.6383 14.7387 20.6563 14.6582L20.6562 14.6581ZM21.7033 14.9534C21.7212 14.8908 21.6854 14.8192 21.6227 14.8013L20.8173 14.5776C20.7547 14.5597 20.6921 14.5955 20.6742 14.6671C20.6563 14.7297 20.6921 14.8013 20.7547 14.8192L21.5601 15.0429C21.6227 15.0519 21.6854 15.0161 21.7033 14.9534Z"
        fill="white" />
    <path
        d="M19.4009 15.0882C19.4276 15.0166 19.5083 14.9897 19.5708 15.0166L21.298 15.7325C21.3606 15.7592 21.3964 15.8399 21.3696 15.9024C21.3427 15.9741 21.2622 16.0009 21.1995 15.9741L19.4724 15.2582C19.4009 15.2314 19.374 15.1508 19.4009 15.0883V15.0882Z"
        fill="#F3F3F3" />
    <path
        d="M19.3891 15.0788C19.4022 15.0444 19.4284 15.0166 19.462 15.0015C19.4955 14.9864 19.5337 14.9852 19.5681 14.9982L21.2952 15.7142C21.3668 15.741 21.3936 15.8216 21.3668 15.9022C21.3537 15.9365 21.3275 15.9643 21.2939 15.9794C21.2604 15.9945 21.2222 15.9957 21.1878 15.9827L19.4607 15.2668C19.3891 15.2309 19.3623 15.1504 19.3891 15.0788ZM21.3489 15.8932C21.3757 15.8306 21.3489 15.759 21.2862 15.7321L19.5592 15.0161C19.4965 14.9894 19.4339 15.0251 19.407 15.0877C19.3802 15.1504 19.407 15.222 19.4696 15.2488L21.1967 15.9648C21.2594 15.9827 21.3309 15.9558 21.3489 15.8932Z"
        fill="white" />
    <path
        d="M19.9809 16.2962C20.0167 16.2335 20.0882 16.2066 20.1508 16.2335L20.8935 16.6094C20.9561 16.6362 20.983 16.7168 20.9473 16.7884C20.9114 16.851 20.8399 16.878 20.7772 16.851L20.0346 16.4752C19.9719 16.4394 19.9451 16.3588 19.9809 16.2962Z"
        fill="#F3F3F3" />
    <path
        d="M19.9728 16.2864C20.0086 16.2148 20.0892 16.188 20.1608 16.2238L20.9035 16.5997C20.9751 16.6355 21.002 16.7161 20.9661 16.7876C20.9304 16.8591 20.8497 16.886 20.7782 16.8502L20.0355 16.4744C19.9638 16.4476 19.937 16.358 19.9728 16.2864ZM20.9393 16.7786C20.9661 16.716 20.9482 16.6444 20.8856 16.6176L20.1429 16.2417C20.0891 16.2149 20.0176 16.2417 19.9818 16.2954C19.955 16.358 19.9728 16.4296 20.0354 16.4565L20.7781 16.8324C20.8409 16.8591 20.9125 16.8413 20.9393 16.7786Z"
        fill="white" />
    <path
        d="M18.6694 16.465C18.7142 16.4023 18.7857 16.3844 18.8484 16.4291L20.4055 17.4672C20.4681 17.503 20.4771 17.5836 20.4413 17.6462C20.3965 17.7089 20.3249 17.7267 20.2623 17.682L18.7052 16.6439C18.6426 16.5992 18.6246 16.5186 18.6694 16.465Z"
        fill="#F3F3F3" />
    <path
        d="M18.6562 16.4565C18.701 16.3939 18.7905 16.376 18.8532 16.4118L20.4103 17.4498C20.473 17.4945 20.4909 17.5751 20.4461 17.6467C20.4014 17.7094 20.3118 17.7272 20.2493 17.6915L18.6921 16.6534C18.6205 16.6087 18.6115 16.5192 18.6562 16.4565ZM20.4193 17.6377C20.455 17.5841 20.4461 17.5035 20.3925 17.4677L18.8353 16.4297C18.7816 16.3939 18.71 16.4118 18.6741 16.4655C18.6384 16.5192 18.6474 16.5997 18.7009 16.6355L20.2582 17.6736C20.3118 17.7094 20.3834 17.6915 20.4193 17.6378V17.6377Z"
        fill="white" />
    <path
        d="M18.9974 17.7627C19.0421 17.7089 19.1227 17.6911 19.1763 17.7359L19.8296 18.2459C19.8833 18.2906 19.8923 18.3712 19.8476 18.4249C19.8029 18.4785 19.7223 18.4965 19.6685 18.4517L19.0152 17.9416C18.9617 17.8969 18.9526 17.8163 18.9974 17.7627Z"
        fill="#F3F3F3" />
    <path
        d="M18.9928 17.7545C19.0375 17.6919 19.127 17.6829 19.1897 17.7277L19.8429 18.2377C19.9055 18.2824 19.9145 18.372 19.8697 18.4346C19.825 18.4973 19.7355 18.5062 19.6729 18.4615L19.0196 17.9514C18.957 17.9067 18.9481 17.8171 18.9928 17.7545ZM19.8519 18.4257C19.8966 18.372 19.8876 18.3004 19.8339 18.2557L19.1807 17.7455C19.127 17.7098 19.0554 17.7188 19.0107 17.7723C18.9659 17.8261 18.9749 17.8977 19.0286 17.9424L19.6818 18.4525C19.7355 18.4884 19.8071 18.4793 19.8518 18.4257H19.8519Z"
        fill="white" />
    <path
        d="M17.6624 17.6736C17.7162 17.6199 17.7968 17.6199 17.8415 17.6736L19.1659 18.989C19.2196 19.0427 19.2107 19.1233 19.1659 19.168C19.1123 19.2216 19.0317 19.2216 18.9869 19.168L17.6624 17.8526C17.6177 17.8078 17.6177 17.7183 17.6624 17.6736Z"
        fill="#F3F3F3" />
    <path
        d="M17.6642 17.6653C17.6904 17.6395 17.7258 17.625 17.7626 17.625C17.7995 17.625 17.8349 17.6395 17.8611 17.6653L19.1856 18.9807C19.2114 19.007 19.2259 19.0423 19.2259 19.0792C19.2259 19.116 19.2114 19.1514 19.1856 19.1777C19.1593 19.2035 19.1239 19.2179 19.0871 19.2179C19.0503 19.2179 19.015 19.2035 18.9887 19.1777L17.6642 17.8623C17.6015 17.8085 17.6015 17.7191 17.6642 17.6653ZM19.1676 19.1597C19.2124 19.115 19.2124 19.0345 19.1676 18.9898L17.8432 17.6743C17.7985 17.6296 17.7179 17.6296 17.6732 17.6743C17.6284 17.719 17.6284 17.7995 17.6732 17.8442L18.9977 19.1597C19.0424 19.2135 19.114 19.2135 19.1676 19.1597Z"
        fill="white" />
    <path
        d="M17.7458 19.0061C17.7995 18.9614 17.88 18.9614 17.9248 19.0151L18.4707 19.6415C18.5154 19.6953 18.5065 19.7758 18.4527 19.8205C18.3992 19.8652 18.3185 19.8652 18.2738 19.8116L17.7278 19.1852C17.6831 19.1404 17.6921 19.0599 17.7458 19.0061Z"
        fill="#F3F3F3" />
    <path
        d="M17.7332 19.0077C17.7958 18.9541 17.8764 18.963 17.9299 19.0167L18.4759 19.643C18.5295 19.6968 18.5206 19.7862 18.458 19.84C18.3953 19.8937 18.3148 19.8847 18.2611 19.831L17.7152 19.2046C17.6705 19.142 17.6705 19.0525 17.7331 19.0077H17.7332ZM18.4491 19.8221C18.5027 19.7774 18.5027 19.7057 18.4669 19.6521L17.921 19.0256C17.8763 18.9809 17.8047 18.9719 17.751 19.0167C17.6973 19.0615 17.6973 19.133 17.7331 19.1866L18.279 19.8131C18.3237 19.8668 18.3954 19.8668 18.449 19.8221H18.4491Z"
        fill="white" />
    <path
        d="M16.4568 18.6659C16.5195 18.6212 16.6 18.6391 16.6359 18.7018L17.6739 20.2499C17.7097 20.3125 17.6918 20.393 17.6381 20.4289C17.5755 20.4736 17.4949 20.4557 17.4591 20.393L16.421 18.8449C16.3852 18.7823 16.4031 18.7017 16.4567 18.6659H16.4568Z"
        fill="#F3F3F3" />
    <path
        d="M16.4597 18.6576C16.5223 18.6129 16.6118 18.6308 16.6565 18.6935L17.6946 20.2416C17.7393 20.3041 17.7214 20.3936 17.6499 20.4383C17.5871 20.4831 17.4977 20.4652 17.4529 20.4026L16.415 18.8545C16.3703 18.783 16.3882 18.7024 16.4597 18.6577V18.6576ZM17.6409 20.4205C17.6946 20.3847 17.7125 20.3131 17.6766 20.2594L16.6387 18.7113C16.6029 18.6577 16.5313 18.6487 16.4687 18.6845C16.415 18.7203 16.3971 18.7918 16.4329 18.8456L17.4709 20.3936C17.5067 20.4383 17.5872 20.4563 17.6408 20.4204L17.6409 20.4205Z"
        fill="white" />
    <path
        d="M16.2689 19.9913C16.3315 19.9556 16.4121 19.9735 16.4478 20.0362L16.8595 20.761C16.8953 20.8237 16.8684 20.9042 16.8058 20.94C16.7431 20.9758 16.6626 20.9579 16.6268 20.8953L16.2152 20.1704C16.1883 20.1077 16.2063 20.0272 16.2688 19.9914L16.2689 19.9913Z"
        fill="#F3F3F3" />
    <path
        d="M16.2708 19.9826C16.3424 19.9468 16.423 19.9647 16.4587 20.0273L16.8703 20.7523C16.9062 20.8149 16.8883 20.9044 16.8168 20.9402C16.7451 20.976 16.6645 20.9581 16.6288 20.8955L16.2171 20.1705C16.1813 20.1079 16.1992 20.0273 16.2707 19.9826H16.2708ZM16.8077 20.9313C16.8615 20.8955 16.8883 20.8239 16.8525 20.7702L16.4409 20.0453C16.405 19.9916 16.3334 19.9737 16.2798 20.0005C16.226 20.0363 16.1992 20.1079 16.235 20.1616L16.6467 20.8865C16.6735 20.9402 16.754 20.9671 16.8077 20.9312V20.9313Z"
        fill="white" />
    <path
        d="M15.0805 19.4017C15.1521 19.3749 15.2237 19.4017 15.2506 19.4643L15.9755 21.1914C16.0023 21.2541 15.9665 21.3346 15.9039 21.3614C15.8413 21.3883 15.7607 21.3614 15.7339 21.2988L15.009 19.5718C14.9822 19.509 15.0179 19.4286 15.0805 19.4017Z"
        fill="#F3F3F3" />
    <path
        d="M15.0777 19.391C15.1493 19.3643 15.2298 19.391 15.2656 19.4626L15.9905 21.1898C16.0034 21.2242 16.0023 21.2623 15.9872 21.2959C15.9721 21.3294 15.9443 21.3556 15.9099 21.3687C15.8383 21.3956 15.7578 21.3687 15.722 21.2971L14.9972 19.5701C14.9703 19.5073 15.0062 19.4269 15.0777 19.391ZM15.892 21.3509C15.9546 21.324 15.9815 21.2524 15.9546 21.1987L15.2298 19.4716C15.203 19.409 15.1314 19.3821 15.0688 19.409C15.0062 19.4358 14.9792 19.5073 15.0062 19.5611L15.7309 21.2883C15.7668 21.3509 15.8294 21.3777 15.892 21.3509Z"
        fill="white" />
    <path
        d="M14.6401 20.6725C14.7118 20.6457 14.7833 20.6814 14.8102 20.753L15.0698 21.5405C15.0966 21.6032 15.0518 21.6837 14.9892 21.7016C14.9176 21.7284 14.846 21.6927 14.8192 21.6211L14.5597 20.8336C14.5329 20.7709 14.5686 20.6993 14.6402 20.6725H14.6401Z"
        fill="#F3F3F3" />
    <path
        d="M14.6292 20.6618C14.6637 20.6488 14.7018 20.65 14.7354 20.6651C14.7689 20.6802 14.7951 20.708 14.8082 20.7423L15.0678 21.5298C15.0946 21.6014 15.0499 21.6819 14.9782 21.7088C14.9438 21.7218 14.9056 21.7206 14.8721 21.7055C14.8385 21.6904 14.8123 21.6626 14.7992 21.6282L14.5397 20.8408C14.5218 20.7692 14.5576 20.6886 14.6292 20.6618ZM14.9783 21.6908C15.0409 21.6729 15.0767 21.6014 15.0589 21.5387L14.7992 20.7513C14.7814 20.6886 14.7098 20.6618 14.6472 20.6797C14.5844 20.6976 14.5487 20.7692 14.5666 20.8318L14.8261 21.6193C14.8307 21.6345 14.8384 21.6485 14.8488 21.6605C14.8591 21.6726 14.8719 21.6823 14.8862 21.689C14.9006 21.6958 14.9162 21.6994 14.9321 21.6997C14.9479 21.7001 14.9637 21.697 14.9783 21.6909V21.6908Z"
        fill="white" />
    <path
        d="M13.5813 19.8575C13.6528 19.8396 13.7245 19.8843 13.7334 19.9559L14.1093 21.7905C14.1272 21.862 14.0735 21.9247 14.0019 21.9425C13.9304 21.9605 13.8587 21.9158 13.8498 21.8442L13.4738 20.0095C13.4649 19.9469 13.5096 19.8753 13.5812 19.8574L13.5813 19.8575Z"
        fill="#F3F3F3" />
    <path
        d="M13.5841 19.8487C13.6645 19.8308 13.7361 19.8845 13.754 19.9561L14.1298 21.7908C14.1477 21.8623 14.094 21.9429 14.0224 21.9519C13.9419 21.9698 13.8703 21.9161 13.8525 21.8445L13.4765 20.0098C13.4587 19.9382 13.5035 19.8666 13.584 19.8488L13.5841 19.8487ZM14.0045 21.9339C14.0672 21.9251 14.1119 21.8623 14.1029 21.7907L13.7271 19.9561C13.7183 19.8935 13.6467 19.8488 13.584 19.8666C13.5213 19.8755 13.4766 19.9382 13.4856 20.0098L13.8614 21.8445C13.8792 21.9071 13.9419 21.9429 14.0046 21.934L14.0045 21.9339Z"
        fill="white" />
    <path
        d="M12.9063 21.0202C12.9779 21.0112 13.0406 21.056 13.0585 21.1276L13.1658 21.9508C13.1748 22.0224 13.1211 22.085 13.0494 22.094C12.9779 22.103 12.9153 22.0583 12.8974 21.9867L12.79 21.1634C12.7811 21.0918 12.8347 21.0291 12.9063 21.0202Z"
        fill="#F3F3F3" />
    <path
        d="M12.9036 21.0117C12.9842 21.0028 13.0559 21.0565 13.0648 21.1281L13.1722 21.9514C13.1812 22.023 13.1275 22.0946 13.0469 22.1035C12.9663 22.1125 12.8947 22.0588 12.8857 21.9871L12.7783 21.1639C12.7694 21.0923 12.823 21.0207 12.9036 21.0117ZM13.0379 22.0856C13.1006 22.0767 13.1544 22.014 13.1454 21.9514L13.0379 21.1281C13.029 21.0655 12.9663 21.0207 12.9036 21.0296C12.841 21.0386 12.7872 21.1012 12.7962 21.1639L12.9036 21.9872C12.9126 22.0499 12.9753 22.0946 13.0379 22.0856Z"
        fill="white" />
    <path
        d="M11.9819 20.0176C12.0535 20.0176 12.1161 20.0713 12.1161 20.1429V22.0132C12.1161 22.0848 12.0535 22.1386 11.9819 22.1386C11.9103 22.1386 11.8477 22.0848 11.8477 22.0132V20.1429C11.8566 20.0713 11.9103 20.0176 11.9819 20.0176Z"
        fill="#F3F3F3" />
    <path
        d="M11.983 20.0093C12.0636 20.0093 12.1262 20.0719 12.1262 20.1435V22.0138C12.1262 22.0854 12.0636 22.148 11.983 22.148C11.9025 22.148 11.8398 22.0854 11.8398 22.0138V20.1436C11.8398 20.072 11.9114 20.0093 11.983 20.0093ZM11.983 22.1302C12.0456 22.1302 12.1083 22.0765 12.1083 22.0138V20.1436C12.1083 20.0809 12.0546 20.0272 11.983 20.0272C11.9204 20.0272 11.8578 20.0809 11.8578 20.1436V22.0138C11.8666 22.0765 11.9204 22.1302 11.983 22.1302Z"
        fill="white" />
    <path
        d="M11.0886 21.02C11.1602 21.029 11.2139 21.0827 11.2139 21.1542L11.1513 21.9865C11.1424 22.0581 11.0797 22.1118 11.0081 22.1029C10.9365 22.0939 10.8828 22.0402 10.8828 21.9686L10.9454 21.1363C10.9544 21.0648 11.017 21.0111 11.0886 21.02Z"
        fill="#F3F3F3" />
    <path
        d="M11.0859 21.0117C11.1664 21.0207 11.2201 21.0833 11.2201 21.1549L11.1575 21.9872C11.1485 22.0588 11.0859 22.1214 11.0053 22.1125C10.9249 22.1035 10.8711 22.0409 10.8711 21.9693L10.9337 21.137C10.9427 21.0565 11.0053 21.0028 11.0859 21.0117ZM11.0053 22.0946C11.0679 22.0946 11.1307 22.0499 11.1307 21.9872L11.1933 21.1549C11.1933 21.0923 11.1485 21.0386 11.0769 21.0296C11.0143 21.0296 10.9516 21.0743 10.9516 21.1371L10.889 21.9693C10.889 22.0319 10.9427 22.0857 11.0054 22.0946H11.0053Z"
        fill="white" />
    <path
        d="M10.4147 19.8571C10.4863 19.8749 10.531 19.9376 10.522 20.0092L10.1551 21.8439C10.1372 21.9155 10.0746 21.9603 10.003 21.9423C9.93142 21.9245 9.88671 21.8618 9.89567 21.7901L10.2626 19.9555C10.2715 19.8929 10.3431 19.8481 10.4147 19.8571Z"
        fill="#F3F3F3" />
    <path
        d="M10.417 19.8482C10.4975 19.8662 10.5423 19.9378 10.5333 20.0093L10.1664 21.844C10.1485 21.9156 10.0769 21.9692 9.99643 21.9513C9.91588 21.9334 9.87108 21.8618 9.88004 21.7902L10.247 19.9557C10.2649 19.8841 10.3365 19.8393 10.4169 19.8483L10.417 19.8482ZM9.99643 21.9334C10.0591 21.9424 10.1217 21.9066 10.1396 21.844L10.5064 20.0093C10.5154 19.9467 10.4796 19.8841 10.4081 19.8662C10.3454 19.8573 10.2828 19.893 10.2649 19.9558L9.89796 21.7902C9.889 21.8618 9.93371 21.9156 9.99643 21.9334Z"
        fill="white" />
    <path
        d="M9.34162 20.6637C9.41331 20.6816 9.45802 20.7532 9.4401 20.8248L9.21636 21.6301C9.19853 21.7017 9.12694 21.7375 9.05535 21.7196C9.0383 21.7155 9.02222 21.7081 9.00804 21.6978C8.99386 21.6875 8.98185 21.6745 8.9727 21.6595C8.96356 21.6446 8.95745 21.6279 8.95473 21.6106C8.95202 21.5933 8.95275 21.5756 8.95687 21.5586L9.18061 20.7532C9.19853 20.6816 9.27012 20.6459 9.34172 20.6637H9.34162Z"
        fill="#F3F3F3" />
    <path
        d="M9.34211 20.6544C9.41379 20.6723 9.46746 20.7528 9.44058 20.8244L9.21685 21.6298C9.19902 21.7014 9.11847 21.7462 9.04689 21.7282C8.9753 21.7104 8.92163 21.6298 8.94842 21.5582L9.17214 20.7528C9.19006 20.6812 9.26165 20.6364 9.34211 20.6543V20.6544ZM9.04689 21.7014C9.10951 21.7193 9.1811 21.6835 9.19902 21.6208L9.42266 20.8154C9.44058 20.7528 9.40483 20.6902 9.33324 20.6723C9.27061 20.6543 9.19902 20.6902 9.1811 20.7528L8.95738 21.5582C8.94842 21.6208 8.98416 21.6835 9.04689 21.7014Z"
        fill="white" />
    <path
        d="M8.90279 19.4014C8.97438 19.4282 9.00117 19.5088 8.97438 19.5714L8.25849 21.2986C8.2317 21.3613 8.15106 21.397 8.08852 21.3613C8.0258 21.3255 7.98996 21.2539 8.01684 21.1912L8.73273 19.4641C8.75952 19.4014 8.84016 19.3656 8.9027 19.4014H8.90279Z"
        fill="#F3F3F3" />
    <path
        d="M8.90112 19.3924C8.93551 19.4055 8.9633 19.4317 8.9784 19.4653C8.9935 19.4989 8.99468 19.537 8.98168 19.5715L8.26576 21.2985C8.23887 21.3701 8.15832 21.397 8.07777 21.3701C8.0434 21.357 8.01563 21.3308 8.00054 21.2973C7.98544 21.2637 7.98424 21.2256 7.99721 21.1912L8.71314 19.464C8.74898 19.3924 8.82953 19.3567 8.90112 19.3924ZM8.08673 21.3523C8.14936 21.379 8.22095 21.3523 8.24783 21.2896L8.96376 19.5625C8.99055 19.4999 8.9548 19.4371 8.89216 19.4104C8.82953 19.3836 8.75794 19.4104 8.73106 19.473L8.01514 21.2001C7.99721 21.2538 8.0241 21.3254 8.08673 21.3523Z"
        fill="white" />
    <path
        d="M7.69414 19.9741C7.75676 20.0098 7.78355 20.0814 7.75676 20.144L7.3809 20.8867C7.34506 20.9493 7.27347 20.9762 7.20188 20.9403C7.13925 20.9046 7.11246 20.833 7.13925 20.7704L7.51521 20.0278C7.55096 19.9651 7.62255 19.9382 7.69414 19.9741Z"
        fill="#F3F3F3" />
    <path
        d="M7.69676 19.9655C7.76835 20.0012 7.79514 20.0819 7.75939 20.1533L7.38352 20.8961C7.34767 20.9677 7.26712 20.9945 7.19563 20.9587C7.12404 20.923 7.09716 20.8423 7.133 20.7708L7.50878 20.0282C7.54462 19.9565 7.62517 19.9297 7.69676 19.9655ZM7.20459 20.9409C7.26722 20.9677 7.33881 20.9497 7.3656 20.8871L7.74147 20.1445C7.76826 20.0907 7.74147 20.0191 7.6878 19.9834C7.62517 19.9566 7.55358 19.9744 7.5267 20.0371L7.15082 20.7797C7.12404 20.8335 7.15082 20.905 7.20459 20.9408V20.9409Z"
        fill="white" />
    <path
        d="M7.51529 18.6494C7.57792 18.6941 7.59584 18.7747 7.55113 18.8284L6.51303 20.3767C6.47728 20.4393 6.39664 20.4482 6.3341 20.4125C6.27147 20.3677 6.25355 20.2872 6.29826 20.2334L7.33636 18.6851C7.37211 18.6225 7.45266 18.6046 7.51529 18.6493V18.6494Z"
        fill="#F3F3F3" />
    <path
        d="M7.51883 18.6405C7.58147 18.6853 7.59939 18.7749 7.56354 18.8375L6.52549 20.3857C6.48078 20.4483 6.40023 20.4662 6.32863 20.4215C6.266 20.3767 6.24808 20.2873 6.28383 20.2245L7.32198 18.6764C7.36669 18.6138 7.4562 18.5958 7.51883 18.6405ZM6.33759 20.4036C6.39117 20.4393 6.47182 20.4303 6.50757 20.3768L7.54572 18.8285C7.58147 18.7749 7.56364 18.7033 7.50987 18.6674C7.4562 18.6317 7.37565 18.6406 7.3399 18.6942L6.30175 20.2335C6.266 20.2873 6.28383 20.3677 6.33759 20.4035V20.4036Z"
        fill="white" />
    <path
        d="M6.21156 18.9813C6.26532 19.026 6.28315 19.1066 6.23844 19.1602L5.7194 19.8135C5.67469 19.8671 5.59414 19.8761 5.54047 19.8314C5.4868 19.7867 5.46888 19.7061 5.51368 19.6524L6.03264 18.9991C6.07734 18.9456 6.15789 18.9365 6.21156 18.9813Z"
        fill="#F3F3F3" />
    <path
        d="M6.2204 18.9708C6.28303 19.0155 6.29199 19.105 6.24719 19.1677L5.72822 19.821C5.6835 19.8836 5.59399 19.8926 5.53136 19.8389C5.46873 19.7941 5.45977 19.7047 5.50457 19.6419L6.02354 18.9887C6.06825 18.926 6.15777 18.9171 6.2204 18.9708ZM5.54928 19.821C5.60286 19.8657 5.67454 19.8568 5.71925 19.8031L6.23832 19.1498C6.27416 19.0962 6.26511 19.0245 6.21153 18.9798C6.15777 18.935 6.08618 18.9439 6.04146 18.9977L5.5224 19.6509C5.48665 19.7047 5.49561 19.7851 5.54919 19.821H5.54928Z"
        fill="white" />
    <path
        d="M6.30205 17.6375C6.35572 17.6911 6.35572 17.7717 6.30205 17.8164L4.9777 19.1318C4.92394 19.1856 4.84349 19.1766 4.79869 19.1318C4.75398 19.0871 4.74502 18.9976 4.79869 18.9529L6.11407 17.6375C6.16783 17.5837 6.24838 17.5837 6.30205 17.6375Z"
        fill="#F3F3F3" />
    <path
        d="M6.3076 17.6291C6.33338 17.6554 6.34783 17.6907 6.34783 17.7275C6.34783 17.7643 6.33338 17.7996 6.3076 17.8259L4.98316 19.1415C4.95691 19.1673 4.92158 19.1818 4.88479 19.1818C4.84799 19.1818 4.81267 19.1673 4.78641 19.1415C4.76057 19.1153 4.74609 19.0799 4.74609 19.0431C4.74609 19.0062 4.76057 18.9709 4.78641 18.9446L6.11075 17.6291C6.13701 17.6033 6.17236 17.5889 6.20918 17.5889C6.246 17.5889 6.28134 17.6033 6.3076 17.6291ZM4.79528 19.1325C4.83999 19.1772 4.92054 19.1772 4.96524 19.1325L6.28968 17.8169C6.33448 17.7722 6.33448 17.6917 6.28968 17.647C6.24497 17.6022 6.16442 17.6022 6.11971 17.647L4.79528 18.9624C4.75057 19.0071 4.75057 19.0788 4.79528 19.1324V19.1325Z"
        fill="white" />
    <path
        d="M4.95349 17.7102C4.9982 17.7638 4.9982 17.8444 4.94453 17.8891L4.30917 18.4262C4.2555 18.4709 4.17495 18.4619 4.13015 18.4082C4.08544 18.3545 4.08544 18.274 4.13911 18.2292L4.77446 17.6923C4.82823 17.6475 4.90868 17.6564 4.95349 17.7102Z"
        fill="#F3F3F3" />
    <path
        d="M4.96715 17.6995C5.02082 17.7623 5.01186 17.8517 4.95819 17.8965L4.32283 18.4333C4.26916 18.4871 4.17964 18.4781 4.12597 18.4155C4.07221 18.3528 4.08117 18.2634 4.13484 18.2186L4.7703 17.6817C4.82387 17.628 4.91348 17.637 4.96706 17.6996L4.96715 17.6995ZM4.1438 18.4065C4.1886 18.4602 4.2602 18.4602 4.31377 18.4245L4.94923 17.8875C4.99394 17.8428 5.0029 17.7711 4.95819 17.7176C4.91339 17.6638 4.84179 17.6638 4.78822 17.6996L4.15276 18.2365C4.09909 18.2812 4.09909 18.3529 4.1438 18.4064V18.4065Z"
        fill="white" />
    <path
        d="M5.31626 16.4201C5.36097 16.4828 5.34305 16.5633 5.28042 16.5991L3.72335 17.6372C3.66072 17.6729 3.58017 17.655 3.54442 17.6013C3.49962 17.5387 3.51754 17.4581 3.58017 17.4223L5.13733 16.3843C5.19109 16.3486 5.27155 16.3664 5.31636 16.4201H5.31626Z"
        fill="#F3F3F3" />
    <path
        d="M5.32632 16.4201C5.37103 16.4829 5.35311 16.5723 5.29048 16.6171L3.73343 17.6551C3.6708 17.6999 3.58129 17.6819 3.53659 17.6104C3.49178 17.5478 3.5098 17.4582 3.57233 17.4135L5.12947 16.3754C5.1921 16.3307 5.28152 16.3487 5.32623 16.4201H5.32632ZM3.55451 17.5925C3.59025 17.6461 3.66184 17.664 3.71551 17.6283L5.27256 16.5902C5.32632 16.5545 5.34415 16.4829 5.29944 16.4202C5.26369 16.3665 5.1921 16.3487 5.13834 16.3844L3.58129 17.4225C3.52763 17.4672 3.51867 17.5388 3.55451 17.5925Z"
        fill="white" />
    <path
        d="M3.98242 16.2333C4.01826 16.2959 4.00034 16.3765 3.93771 16.4123L3.21283 16.8239C3.1502 16.8596 3.06965 16.8328 3.0339 16.7702C2.99805 16.7076 3.01598 16.6271 3.07861 16.5912L3.80349 16.1796C3.86612 16.1438 3.94667 16.1707 3.98251 16.2333H3.98242Z"
        fill="#F3F3F3" />
    <path
        d="M3.99145 16.2245C4.0272 16.2961 4.00927 16.3766 3.94665 16.4125L3.22178 16.8241C3.15916 16.8598 3.06964 16.833 3.0339 16.7704C2.99805 16.6988 3.01598 16.6183 3.07861 16.5824L3.80347 16.1708C3.86609 16.135 3.95561 16.1619 3.99135 16.2245H3.99145ZM3.04276 16.7614C3.0786 16.8241 3.15019 16.842 3.20386 16.8061L3.92872 16.3946C3.98239 16.3587 4.00031 16.2871 3.97353 16.2335C3.93768 16.1708 3.86609 16.1529 3.81243 16.1888L3.08757 16.6003C3.0339 16.6271 3.01598 16.6988 3.04286 16.7614H3.04276Z"
        fill="white" />
    <path
        d="M4.5844 15.0432C4.61119 15.1148 4.5844 15.1864 4.51281 15.2132L2.78567 15.9291C2.72304 15.956 2.64248 15.9202 2.6157 15.8575C2.58881 15.7859 2.6157 15.7143 2.68729 15.6875L4.41443 14.9716C4.47706 14.9448 4.55761 14.9716 4.5844 15.0432Z"
        fill="#F3F3F3" />
    <path
        d="M4.59336 15.0343C4.62015 15.1059 4.59336 15.1865 4.52177 15.2222L2.79463 15.9381C2.76021 15.9511 2.72206 15.9499 2.68852 15.9348C2.65499 15.9197 2.6288 15.8919 2.6157 15.8576C2.58881 15.786 2.6157 15.7054 2.68729 15.6697L4.41443 14.9538C4.44884 14.9408 4.48699 14.942 4.52053 14.9571C4.55407 14.9722 4.58025 14.9999 4.59336 15.0343ZM2.63352 15.8486C2.6604 15.9113 2.732 15.9382 2.78567 15.9202L4.51281 15.2043C4.57544 15.1775 4.60232 15.1059 4.57544 15.0433C4.54865 14.9806 4.47706 14.9538 4.4233 14.9717L2.69615 15.6876C2.63352 15.7144 2.60673 15.786 2.63352 15.8487V15.8486Z"
        fill="white" />
    <path
        d="M3.3193 14.5953C3.34609 14.6669 3.31034 14.7385 3.23875 14.7653L2.45124 15.0248C2.38861 15.0516 2.30806 15.0069 2.29014 14.9443C2.26335 14.8727 2.2991 14.8011 2.37069 14.7743L3.1582 14.5147C3.22083 14.488 3.29242 14.5237 3.3193 14.5953Z"
        fill="#F3F3F3" />
    <path
        d="M3.32644 14.5867C3.35332 14.6583 3.31757 14.7389 3.23702 14.7658L2.44953 15.0253C2.37794 15.0521 2.29739 15.0074 2.27051 14.9358C2.24372 14.8642 2.27947 14.7836 2.36011 14.7568L3.14751 14.4972C3.2191 14.4794 3.29965 14.5151 3.32653 14.5868L3.32644 14.5867ZM2.28852 14.9269C2.30644 14.9895 2.37803 15.0254 2.44066 15.0075L3.22815 14.7479C3.29078 14.73 3.31766 14.6584 3.29974 14.5958C3.28182 14.5331 3.21023 14.4973 3.1476 14.5152L2.36011 14.7748C2.29748 14.8016 2.2706 14.8643 2.28852 14.9269Z"
        fill="white" />
    <path
        d="M4.1242 13.5299C4.14203 13.6015 4.09732 13.6731 4.02573 13.6821L2.19116 14.04C2.11957 14.0579 2.05694 14.0042 2.03911 13.9326C2.02119 13.861 2.0659 13.7894 2.13749 13.7804L3.97206 13.4225C4.04365 13.4136 4.11524 13.4583 4.12411 13.5299H4.1242Z"
        fill="#F3F3F3" />
    <path
        d="M4.14156 13.5304C4.15948 13.611 4.10581 13.6825 4.03422 13.7004L2.19964 14.0583C2.12805 14.0762 2.05646 14.0226 2.03863 13.942C2.02071 13.8615 2.07438 13.7899 2.14597 13.7721L3.98055 13.4141C4.05205 13.3962 4.12373 13.4499 4.14156 13.5304ZM2.05646 13.9332C2.06542 13.9957 2.12805 14.0405 2.19068 14.0315L4.02526 13.6736C4.08789 13.6646 4.1326 13.593 4.11477 13.5304C4.10581 13.4678 4.04318 13.423 3.98046 13.4319L2.14597 13.7899C2.08334 13.8078 2.03863 13.8704 2.05646 13.9331V13.9332Z"
        fill="white" />
    <path
        d="M2.98125 12.842C2.99012 12.9135 2.94541 12.9763 2.87382 12.9852L2.05057 13.0836C1.97889 13.0926 1.91626 13.0389 1.90739 12.9672C1.89843 12.8957 1.94314 12.833 2.01473 12.824L2.83807 12.7256C2.9007 12.7166 2.97229 12.7703 2.98125 12.842Z"
        fill="#F3F3F3" />
    <path
        d="M2.98729 12.8421C2.99616 12.9226 2.94249 12.9942 2.8709 13.0031L2.04765 13.1016C1.97597 13.1105 1.90447 13.0569 1.89551 12.9763C1.88655 12.8958 1.94022 12.8242 2.01181 12.8153L2.83515 12.7168C2.90665 12.7078 2.97833 12.7616 2.9872 12.842L2.98729 12.8421ZM1.90438 12.9674C1.91334 13.03 1.97606 13.0838 2.03869 13.0747L2.86194 12.9763C2.92457 12.9674 2.96937 12.9048 2.96041 12.8421C2.95145 12.7794 2.88882 12.7258 2.82619 12.7347L2.00285 12.8332C1.94022 12.8421 1.89551 12.9048 1.90438 12.9674Z"
        fill="white" />
    <path
        d="M3.98402 11.9721C3.98402 12.0438 3.93044 12.1064 3.85876 12.1064H1.98854C1.91695 12.1064 1.86328 12.0438 1.86328 11.9722C1.86328 11.9006 1.91695 11.8379 1.98854 11.8379H3.85885C3.93044 11.8379 3.98421 11.9006 3.98421 11.9722L3.98402 11.9721Z"
        fill="#F3F3F3" />
    <path
        d="M3.99424 11.9728C3.99424 12.0534 3.93151 12.1159 3.85992 12.1159H1.98969C1.9181 12.1159 1.85547 12.0533 1.85547 11.9728C1.85547 11.8923 1.9181 11.8296 1.98969 11.8296H3.86001C3.93161 11.8296 3.99424 11.8923 3.99424 11.9728ZM1.8733 11.9639C1.8733 12.0265 1.92697 12.0892 1.98969 12.0892H3.85992C3.92255 12.0892 3.97632 12.0355 3.97632 11.9639C3.97632 11.9013 3.92255 11.8385 3.85992 11.8385H1.98969C1.92706 11.8475 1.87339 11.9013 1.87339 11.9639H1.8733Z"
        fill="white" />
    <path
        d="M2.99014 11.0701C2.98109 11.1417 2.92742 11.1953 2.85582 11.1953L2.02351 11.1327C1.95201 11.1237 1.89834 11.0611 1.90721 10.9895C1.91617 10.9179 1.96993 10.8643 2.04153 10.8643L2.87374 10.9269C2.93638 10.9358 2.99014 10.9985 2.99014 11.0701Z"
        fill="#E2E2E2" />
    <path
        d="M2.99603 11.0683C2.98707 11.1488 2.92444 11.2025 2.85285 11.2025L2.02056 11.1399C1.94906 11.1309 1.88643 11.0683 1.89539 10.9877C1.90426 10.9073 1.96698 10.8535 2.03857 10.8535L2.87077 10.9161C2.94236 10.9251 2.99603 10.9967 2.99603 11.0683ZM1.90426 10.9877C1.89539 11.0504 1.94906 11.1131 2.01169 11.1131L2.84399 11.1757C2.90652 11.1757 2.96029 11.1309 2.96925 11.0593C2.97821 10.9967 2.92444 10.9341 2.86181 10.9341L2.02952 10.8714C1.96698 10.8714 1.91322 10.9251 1.90426 10.9878V10.9877Z"
        fill="white" />
    <path
        d="M4.14374 10.4153C4.12582 10.4869 4.06318 10.5317 3.99159 10.5227L2.15711 10.1469C2.08552 10.1289 2.04072 10.0663 2.05864 9.99472C2.07656 9.92314 2.13919 9.87834 2.21078 9.88739L4.04536 10.2543C4.10799 10.2721 4.1527 10.3437 4.14374 10.4153Z"
        fill="#F3F3F3" />
    <path
        d="M4.15327 10.4159C4.13534 10.4965 4.06375 10.5413 3.99216 10.5323L2.15769 10.1654C2.0861 10.1475 2.03243 10.0759 2.05035 9.99545C2.06818 9.91481 2.13977 9.8701 2.21136 9.87906L4.04593 10.246C4.11752 10.2639 4.16223 10.3355 4.15327 10.4159ZM2.06818 9.99536C2.05922 10.058 2.09497 10.1206 2.15769 10.1385L3.99226 10.5055C4.05489 10.5144 4.11752 10.4787 4.13544 10.407C4.1443 10.3444 4.10856 10.2817 4.04583 10.2638L2.21145 9.89698C2.13986 9.88802 2.08619 9.93273 2.06827 9.99536H2.06818Z"
        fill="white" />
    <path
        d="M3.33793 9.34169C3.33382 9.35874 3.32639 9.3748 3.31607 9.38897C3.30575 9.40314 3.29273 9.41514 3.27777 9.42427C3.26281 9.43341 3.24619 9.43951 3.22887 9.44222C3.21155 9.44493 3.19386 9.4442 3.17682 9.44007L2.37139 9.21635C2.2998 9.19843 2.26405 9.12684 2.28188 9.05525C2.28599 9.03821 2.29341 9.02215 2.30374 9.00798C2.31406 8.99381 2.32707 8.98181 2.34204 8.97267C2.357 8.96354 2.37362 8.95744 2.39094 8.95473C2.40826 8.95202 2.42594 8.95275 2.44298 8.95688L3.24841 9.1806C3.32001 9.19843 3.35575 9.27001 3.33793 9.3416V9.34169Z"
        fill="#F3F3F3" />
    <path
        d="M3.34346 9.3432C3.32563 9.4147 3.24508 9.46846 3.17349 9.44158L2.36805 9.21786C2.29646 9.19994 2.25166 9.11939 2.26958 9.0479C2.2875 8.97622 2.36805 8.92255 2.43964 8.94943L3.24508 9.17315C3.31667 9.19107 3.36147 9.26266 3.34346 9.34311V9.3432ZM2.29646 9.04771C2.27854 9.11043 2.31438 9.18202 2.37701 9.19985L3.18245 9.42357C3.24508 9.44149 3.30771 9.40565 3.32563 9.33406C3.34346 9.27143 3.30771 9.19985 3.24508 9.18202L2.43964 8.9583C2.37701 8.94934 2.31438 8.98509 2.29646 9.04781V9.04771Z"
        fill="white" />
    <path
        d="M4.59888 8.91181C4.57209 8.9833 4.49145 9.01018 4.42891 8.9833L2.70168 8.26741C2.63905 8.24062 2.6033 8.16007 2.63009 8.09744C2.65697 8.02585 2.73752 7.99897 2.80015 8.02585L4.52729 8.74175C4.59888 8.76853 4.62576 8.84908 4.59888 8.91171V8.91181Z"
        fill="#F3F3F3" />
    <path
        d="M4.60905 8.92203C4.59595 8.95641 4.56974 8.9842 4.53619 8.9993C4.50263 9.0144 4.46445 9.01557 4.43003 9.00258L2.70287 8.28668C2.63128 8.25989 2.60449 8.17934 2.63128 8.09879C2.64439 8.06441 2.67059 8.03662 2.70415 8.02152C2.7377 8.00642 2.77588 8.00524 2.81031 8.01824L4.53746 8.73414C4.60905 8.76989 4.63584 8.85053 4.60905 8.92203ZM2.6492 8.10775C2.62241 8.17038 2.6492 8.24197 2.71183 8.26876L4.43899 8.98465C4.50162 9.01154 4.56425 8.97569 4.59113 8.91306C4.61792 8.85044 4.59113 8.77885 4.5285 8.75206L2.80135 8.03616C2.73871 8.01824 2.66712 8.04512 2.6492 8.10775Z"
        fill="white" />
    <path
        d="M4.01764 7.70536C3.98189 7.76799 3.9103 7.79487 3.84767 7.76799L3.10488 7.39219C3.04225 7.3653 3.01537 7.28475 3.05121 7.21315C3.08696 7.15052 3.15855 7.12364 3.22118 7.15052L3.96388 7.52642C4.0266 7.56217 4.05349 7.64282 4.01764 7.70536Z"
        fill="#F3F3F3" />
    <path
        d="M4.02474 7.71289C3.9889 7.78448 3.90835 7.81136 3.83676 7.77552L3.09406 7.39964C3.02247 7.36389 2.99559 7.28333 3.03143 7.21174C3.06718 7.14015 3.14783 7.11327 3.21932 7.14911L3.96202 7.52499C4.0337 7.55178 4.06049 7.64139 4.02474 7.71289ZM3.05822 7.2207C3.03143 7.28333 3.04935 7.35493 3.11198 7.38181L3.85468 7.75769C3.90844 7.78448 3.98003 7.75769 4.01578 7.70393C4.04257 7.6413 4.02474 7.5697 3.96211 7.54282L3.21027 7.16712C3.1566 7.14033 3.08501 7.15816 3.05813 7.22079L3.05822 7.2207Z"
        fill="white" />
    <path
        d="M5.33461 7.53564C5.2899 7.59836 5.21831 7.61629 5.15568 7.57148L3.60743 6.54242C3.5449 6.50658 3.53593 6.42603 3.57168 6.3634C3.60753 6.30077 3.68808 6.28285 3.75071 6.32756L5.30782 7.36567C5.3615 7.40151 5.37942 7.48206 5.33461 7.53564Z"
        fill="#F3F3F3" />
    <path
        d="M5.34078 7.54269C5.29607 7.60542 5.20656 7.62324 5.14402 7.58749L3.59582 6.54938C3.53319 6.50467 3.51527 6.42412 3.55998 6.35262C3.60478 6.2899 3.69429 6.27198 3.75692 6.30782L5.30503 7.34584C5.37662 7.39064 5.38558 7.48006 5.34078 7.54269ZM3.5779 6.36149C3.54215 6.41516 3.55111 6.49571 3.60469 6.53146L5.16185 7.56967C5.21552 7.60551 5.28711 7.58759 5.32295 7.53392C5.3587 7.48015 5.34974 7.3996 5.29616 7.36385L3.73891 6.32574C3.68524 6.2899 3.61365 6.30782 3.57781 6.36149H3.5779Z"
        fill="white" />
    <path
        d="M5.00376 6.23711C4.95905 6.29078 4.8785 6.3087 4.82483 6.2639L4.17154 5.75391C4.11787 5.70911 4.10891 5.62856 4.15362 5.57489C4.19833 5.52122 4.27888 5.5033 4.33264 5.5481L4.98584 6.05809C5.0396 6.10289 5.04856 6.18335 5.00376 6.23711Z"
        fill="#F3F3F3" />
    <path
        d="M5.01428 6.24696C4.96957 6.30968 4.88006 6.31864 4.81744 6.27384L4.16417 5.76384C4.10154 5.71914 4.09258 5.62963 4.13738 5.56709C4.18209 5.50437 4.2716 5.49541 4.33414 5.54021L4.9874 6.0502C5.05012 6.09501 5.05908 6.18442 5.01428 6.24714V6.24696ZM4.15521 5.57586C4.1105 5.62953 4.11946 5.70112 4.17313 5.74583L4.8264 6.25601C4.88006 6.29176 4.95165 6.2828 4.99636 6.22913C5.04116 6.17546 5.0322 6.10387 4.97853 6.05916L4.32527 5.54898C4.2716 5.51323 4.19992 5.52219 4.1553 5.57586H4.15521Z"
        fill="white" />
    <path
        d="M6.33438 6.32664C6.2808 6.3804 6.20016 6.3804 6.15545 6.32664L4.82216 5.0112C4.76849 4.95753 4.77736 4.87698 4.82216 4.83218C4.87583 4.7786 4.95638 4.7786 5.00109 4.83218L6.3256 6.1477C6.37928 6.19241 6.37928 6.28193 6.33457 6.32673L6.33438 6.32664Z"
        fill="#F3F3F3" />
    <path
        d="M6.33507 6.33602C6.30882 6.3618 6.27349 6.37625 6.23669 6.37625C6.1999 6.37625 6.16457 6.3618 6.13832 6.33602L4.81376 5.02042C4.78792 4.99416 4.77344 4.95879 4.77344 4.92195C4.77344 4.88511 4.78792 4.84974 4.81376 4.82348C4.84001 4.79767 4.87536 4.7832 4.91218 4.7832C4.949 4.7832 4.98435 4.79767 5.01061 4.82348L6.33507 6.13898C6.3977 6.19265 6.3977 6.28216 6.33507 6.33583V6.33602ZM4.83186 4.8414C4.78706 4.8862 4.78706 4.96675 4.83186 5.01137L6.15624 6.32687C6.20104 6.37167 6.2815 6.37167 6.32621 6.32687C6.37101 6.28216 6.37101 6.20161 6.32621 6.1569L5.00183 4.83253C4.95712 4.78782 4.88544 4.78782 4.83186 4.84149V4.8414Z"
        fill="white" />
    <path
        d="M6.25352 4.99334C6.19985 5.03814 6.1193 5.03814 6.0745 4.98438L5.52857 4.35798C5.48395 4.30431 5.49282 4.22376 5.54658 4.17905C5.60016 4.13425 5.6808 4.13425 5.72551 4.18792L6.27144 4.81441C6.31615 4.85912 6.30719 4.93967 6.25352 4.99334Z"
        fill="#F3F3F3" />
    <path
        d="M6.2624 4.99334C6.19977 5.04701 6.11922 5.03814 6.06545 4.98438L5.51961 4.35797C5.46594 4.3043 5.4749 4.21479 5.53753 4.16112C5.60016 4.10736 5.68071 4.11632 5.73438 4.17008L6.28032 4.79639C6.32503 4.85911 6.32503 4.94863 6.2624 4.99334ZM5.54649 4.17904C5.49273 4.22375 5.49273 4.29534 5.52857 4.34901L6.07451 4.97542C6.11922 5.02022 6.19081 5.02918 6.24448 4.98438C6.29815 4.93967 6.29815 4.86798 6.2624 4.8144L5.71646 4.18791C5.67175 4.13433 5.60007 4.13433 5.54649 4.17904Z"
        fill="white" />
    <path
        d="M7.54152 5.3332C7.47889 5.37791 7.39834 5.35999 7.3625 5.29736L6.31553 3.74916C6.27968 3.68653 6.29761 3.60598 6.35127 3.57023C6.4139 3.52552 6.49446 3.54344 6.5303 3.60607L7.56831 5.15418C7.61311 5.21681 7.59519 5.29736 7.54152 5.33311V5.3332Z"
        fill="#F3F3F3" />
    <path
        d="M7.54443 5.34273C7.4818 5.38754 7.39229 5.36952 7.34749 5.30698L6.30952 3.75876C6.26481 3.69613 6.28273 3.60671 6.35423 3.562C6.41686 3.5172 6.50636 3.53512 6.55116 3.59775L7.58914 5.14588C7.63384 5.21747 7.61592 5.29802 7.54443 5.34273ZM6.3631 3.57983C6.30943 3.61558 6.29151 3.68717 6.32735 3.74093L7.36532 5.28906C7.40116 5.34273 7.47275 5.35169 7.53528 5.31585C7.58904 5.2801 7.60696 5.20851 7.57112 5.15484L6.53324 3.61558C6.4974 3.562 6.41686 3.54399 6.36328 3.57983H6.3631Z"
        fill="white" />
    <path
        d="M7.73163 4.00955C7.669 4.0453 7.58845 4.02747 7.55271 3.96484L7.14101 3.23997C7.10526 3.17734 7.13205 3.09679 7.19477 3.06095C7.2574 3.0252 7.33794 3.04303 7.37369 3.10575L7.78529 3.83053C7.81217 3.89316 7.79425 3.97371 7.73172 4.00955H7.73163Z"
        fill="#F3F3F3" />
    <path
        d="M7.73074 4.01828C7.65915 4.05403 7.5786 4.0362 7.54285 3.97347L7.13114 3.24869C7.09539 3.18597 7.11331 3.09655 7.1849 3.06071C7.25649 3.02496 7.33704 3.04279 7.37279 3.10551L7.78441 3.83029C7.82025 3.89292 7.80233 3.97347 7.73084 4.01828H7.73074ZM7.19386 3.06967C7.1401 3.10542 7.11331 3.17701 7.14906 3.23077L7.56077 3.95565C7.59652 4.00922 7.66811 4.02724 7.72178 4.00036C7.77554 3.96461 7.80233 3.89292 7.76658 3.83925L7.35487 3.11438C7.32808 3.0608 7.24753 3.03383 7.19386 3.06967Z"
        fill="white" />
    <path
        d="M8.91942 4.59942C8.84792 4.62621 8.77624 4.59942 8.74945 4.53679L8.02462 2.80956C7.99783 2.74692 8.03358 2.66637 8.09621 2.63949C8.16779 2.6127 8.23938 2.63949 8.26617 2.70212L8.991 4.42927C9.01788 4.4919 8.98214 4.57245 8.91942 4.59924V4.59942Z"
        fill="#F3F3F3" />
    <path
        d="M8.92174 4.60854C8.85024 4.63533 8.76968 4.60854 8.73384 4.53685L8.00896 2.80982C7.99596 2.77539 7.99714 2.73721 8.01224 2.70366C8.02734 2.6701 8.05513 2.6439 8.08952 2.63079C8.16111 2.604 8.24166 2.63079 8.2775 2.70238L9.00229 4.42951C9.02917 4.49214 8.99342 4.5727 8.92183 4.60854H8.92174ZM8.10744 2.64871C8.04481 2.6755 8.01792 2.74719 8.04481 2.80085L8.76959 4.52789C8.79638 4.59052 8.86797 4.61731 8.9306 4.59052C8.99324 4.56374 9.02021 4.49205 8.99324 4.43838L8.26845 2.71125C8.23261 2.64862 8.16998 2.62174 8.10734 2.64862L8.10744 2.64871Z"
        fill="white" />
    <path
        d="M9.3593 3.32944C9.28772 3.35623 9.21613 3.32039 9.18935 3.24889L8.9298 2.46131C8.90301 2.39868 8.94772 2.31813 9.01034 2.3003C9.07297 2.28238 9.15351 2.30926 9.18029 2.38085L9.43984 3.16834C9.46663 3.23097 9.43088 3.30256 9.3593 3.32935V3.32944Z"
        fill="#F3F3F3" />
    <path
        d="M9.36825 3.33765C9.33384 3.35063 9.29568 3.34943 9.26214 3.33433C9.22861 3.31924 9.20242 3.29147 9.18931 3.2571L8.92973 2.4696C8.90293 2.39801 8.94765 2.31755 9.01933 2.29067C9.05375 2.2777 9.0919 2.27889 9.12544 2.29399C9.15898 2.30909 9.18517 2.33686 9.19827 2.37122L9.45777 3.15872C9.47569 3.23031 9.43985 3.31087 9.36825 3.33765ZM9.01924 2.30859C8.95661 2.32642 8.92076 2.39801 8.93869 2.46064L9.19827 3.24823C9.2161 3.31087 9.2877 3.33765 9.35042 3.31973C9.41306 3.3019 9.44881 3.23031 9.43088 3.16768L9.17139 2.38009C9.16683 2.3649 9.15912 2.35084 9.14876 2.33882C9.13841 2.32681 9.12564 2.31711 9.11129 2.31036C9.09693 2.3036 9.08132 2.29995 9.06546 2.29963C9.0496 2.29931 9.03385 2.30233 9.01924 2.3085V2.30859Z"
        fill="white" />
    <path
        d="M10.4182 4.14324C10.3466 4.16116 10.275 4.11645 10.266 4.04477L9.89019 2.2103C9.87227 2.13871 9.92603 2.07608 9.99753 2.05816C10.0692 2.04024 10.1407 2.08495 10.1497 2.15663L10.5256 3.99119C10.5345 4.05373 10.4898 4.12532 10.4182 4.14324Z"
        fill="#F3F3F3" />
    <path
        d="M10.4127 4.1519C10.3321 4.16982 10.2606 4.11606 10.2426 4.04447L9.86675 2.20999C9.84883 2.1384 9.9026 2.05784 9.97419 2.04888C10.0547 2.03096 10.1263 2.08473 10.1442 2.15632L10.5201 3.99089C10.538 4.06239 10.4933 4.13407 10.4127 4.1519ZM9.99211 2.0668C9.92939 2.07576 9.88468 2.1384 9.89364 2.20999L10.2695 4.04456C10.2785 4.1071 10.35 4.1519 10.4127 4.13398C10.4753 4.12502 10.52 4.06239 10.5111 3.9908L10.1352 2.15622C10.1174 2.09369 10.0547 2.05784 9.99202 2.0668H9.99211Z"
        fill="white" />
    <path
        d="M11.0964 2.9798C11.0248 2.98876 10.9622 2.94405 10.9443 2.87246L10.8369 2.0491C10.828 1.97751 10.8816 1.91488 10.9533 1.90592C11.0248 1.89696 11.0874 1.94176 11.1053 2.01336L11.2127 2.83661C11.2216 2.90821 11.168 2.97084 11.0964 2.9798Z"
        fill="#F3F3F3" />
    <path
        d="M11.0975 2.98899C11.017 2.99795 10.9454 2.94428 10.9364 2.8726L10.8291 2.04934C10.8201 1.97775 10.8738 1.90616 10.9544 1.8972C11.0349 1.88833 11.1065 1.942 11.1154 2.01359L11.2228 2.83685C11.2317 2.90844 11.1781 2.98003 11.0975 2.98899ZM10.9633 1.91512C10.9007 1.92408 10.8469 1.98671 10.8559 2.04934L10.9633 2.87269C10.9723 2.93532 11.0349 2.98003 11.0975 2.97107C11.1602 2.9622 11.2139 2.89948 11.205 2.83685L11.0975 2.01359C11.0886 1.95096 11.0259 1.90616 10.9633 1.91512Z"
        fill="white" />
    <path
        d="M12.0603 22.5864C17.912 22.5864 22.6558 17.8427 22.6558 11.991C22.6558 6.13925 17.912 1.39551 12.0603 1.39551C6.20859 1.39551 1.46484 6.13925 1.46484 11.991C1.46484 17.8427 6.20859 22.5864 12.0603 22.5864Z"
        fill="url(#paint2_linear_1930_7706)" fill-opacity="0.2" />
    <path
        d="M19.3975 5.27148L10.8513 10.7482H10.8423V10.7571L10.8334 10.7661L5.5 19.5629L13.3392 13.2539L13.3481 13.245V13.2361L19.3976 5.27158L19.3975 5.27148Z"
        fill="black" fill-opacity="0.05" />
    <path d="M19.2368 4.75977L10.7891 10.7644L13.2947 13.2522L19.2368 4.75977Z" fill="#CD151E" />
    <path d="M10.8008 10.7466L12.0626 11.9904L19.2395 4.75977L10.8008 10.7466Z" fill="#FA5153" />
    <path d="M10.8014 10.7472L13.3071 13.2348L4.85938 19.2396L10.8014 10.7471V10.7472Z" fill="#ACACAC" />
    <path d="M4.85938 19.2396L12.0632 11.991L10.8013 10.7471L4.85938 19.2396Z" fill="#EEEEEE" />
    <defs>
        <linearGradient id="paint0_linear_1930_7706" x1="12.0014" y1="23.4545" x2="12.0014" y2="0.54541"
            gradientUnits="userSpaceOnUse">
            <stop offset="0.25" stop-color="#DBDBDA" />
            <stop offset="1" stop-color="white" />
        </linearGradient>
        <radialGradient id="paint1_radial_1930_7706" cx="0" cy="0" r="1" gradientUnits="userSpaceOnUse"
            gradientTransform="translate(13.4904 9.67211) scale(12.9332 12.9332)">
            <stop stop-color="#2ABCE1" />
            <stop offset="0.11363" stop-color="#2ABBE1" />
            <stop offset="1" stop-color="#3375F8" />
        </radialGradient>
        <linearGradient id="paint2_linear_1930_7706" x1="11.859" y1="8.9613" x2="6.91366" y2="17.8337"
            gradientUnits="userSpaceOnUse">
            <stop stop-opacity="0" />
            <stop offset="1" />
        </linearGradient>
    </defs>
</svg>